<mxfile host="65bd71144e" modified="2021-02-03T03:01:38.475Z" agent="5.0 (Macintosh; Intel Mac OS X 11_0_0) AppleWebKit/537.36 (KHTML, like Gecko) Code/1.52.1 Chrome/83.0.4103.122 Electron/9.3.5 Safari/537.36" version="13.10.0" etag="2WKIQ_nFwSxdOBe5l66e" type="embed">
    <diagram id="BxoYGRtnpjUzMivV1i0b" name="第 1 页">
        <mxGraphModel dx="940" dy="693" grid="1" gridSize="10" guides="1" tooltips="1" connect="1" arrows="1" fold="1" page="1" pageScale="1" pageWidth="850" pageHeight="1100" math="0" shadow="0">
            <root>
                <mxCell id="0"/>
                <mxCell id="1" parent="0"/>
                <mxCell id="4" value="" style="rounded=0;whiteSpace=wrap;html=1;" vertex="1" parent="1">
                    <mxGeometry x="326" y="220" width="470" height="260" as="geometry"/>
                </mxCell>
                <mxCell id="51" style="edgeStyle=orthogonalEdgeStyle;rounded=0;orthogonalLoop=1;jettySize=auto;html=1;entryX=0;entryY=0.5;entryDx=0;entryDy=0;" edge="1" parent="1" target="5">
                    <mxGeometry relative="1" as="geometry">
                        <mxPoint x="255" y="275" as="sourcePoint"/>
                    </mxGeometry>
                </mxCell>
                <mxCell id="52" style="edgeStyle=orthogonalEdgeStyle;rounded=0;orthogonalLoop=1;jettySize=auto;html=1;" edge="1" parent="1" target="6">
                    <mxGeometry relative="1" as="geometry">
                        <mxPoint x="257" y="325" as="sourcePoint"/>
                    </mxGeometry>
                </mxCell>
                <mxCell id="53" style="edgeStyle=orthogonalEdgeStyle;rounded=0;orthogonalLoop=1;jettySize=auto;html=1;" edge="1" parent="1" target="7">
                    <mxGeometry relative="1" as="geometry">
                        <mxPoint x="257" y="375" as="sourcePoint"/>
                    </mxGeometry>
                </mxCell>
                <mxCell id="54" style="edgeStyle=orthogonalEdgeStyle;rounded=0;orthogonalLoop=1;jettySize=auto;html=1;" edge="1" parent="1" target="8">
                    <mxGeometry relative="1" as="geometry">
                        <mxPoint x="257" y="425" as="sourcePoint"/>
                    </mxGeometry>
                </mxCell>
                <mxCell id="3" value="LB" style="rounded=0;whiteSpace=wrap;html=1;fillColor=#fff2cc;strokeColor=#d6b656;" vertex="1" parent="1">
                    <mxGeometry x="206" y="240" width="50" height="220" as="geometry"/>
                </mxCell>
                <mxCell id="5" value="Coordinating1" style="rounded=0;whiteSpace=wrap;html=1;fillColor=#dae8fc;strokeColor=#6c8ebf;" vertex="1" parent="1">
                    <mxGeometry x="346" y="260" width="120" height="30" as="geometry"/>
                </mxCell>
                <mxCell id="6" value="Coordinating2" style="rounded=0;whiteSpace=wrap;html=1;fillColor=#dae8fc;strokeColor=#6c8ebf;" vertex="1" parent="1">
                    <mxGeometry x="346" y="310" width="120" height="30" as="geometry"/>
                </mxCell>
                <mxCell id="7" value="Coordinating3" style="rounded=0;whiteSpace=wrap;html=1;fillColor=#dae8fc;strokeColor=#6c8ebf;" vertex="1" parent="1">
                    <mxGeometry x="346" y="360" width="120" height="30" as="geometry"/>
                </mxCell>
                <mxCell id="8" value="Coordinating4" style="rounded=0;whiteSpace=wrap;html=1;fillColor=#dae8fc;strokeColor=#6c8ebf;" vertex="1" parent="1">
                    <mxGeometry x="346" y="410" width="120" height="30" as="geometry"/>
                </mxCell>
                <mxCell id="18" value="Data1" style="rounded=0;whiteSpace=wrap;html=1;fillColor=#fff2cc;strokeColor=#d6b656;" vertex="1" parent="1">
                    <mxGeometry x="516" y="235" width="110" height="20" as="geometry"/>
                </mxCell>
                <mxCell id="22" value="Data2" style="rounded=0;whiteSpace=wrap;html=1;fillColor=#fff2cc;strokeColor=#d6b656;" vertex="1" parent="1">
                    <mxGeometry x="516" y="265" width="110" height="20" as="geometry"/>
                </mxCell>
                <mxCell id="23" value="Data3" style="rounded=0;whiteSpace=wrap;html=1;fillColor=#fff2cc;strokeColor=#d6b656;" vertex="1" parent="1">
                    <mxGeometry x="516" y="295" width="110" height="20" as="geometry"/>
                </mxCell>
                <mxCell id="24" value="Data4" style="rounded=0;whiteSpace=wrap;html=1;fillColor=#fff2cc;strokeColor=#d6b656;" vertex="1" parent="1">
                    <mxGeometry x="516" y="325" width="110" height="20" as="geometry"/>
                </mxCell>
                <mxCell id="25" value="Data5" style="rounded=0;whiteSpace=wrap;html=1;fillColor=#fff2cc;strokeColor=#d6b656;" vertex="1" parent="1">
                    <mxGeometry x="516" y="355" width="110" height="20" as="geometry"/>
                </mxCell>
                <mxCell id="26" value="Data6" style="rounded=0;whiteSpace=wrap;html=1;fillColor=#fff2cc;strokeColor=#d6b656;" vertex="1" parent="1">
                    <mxGeometry x="516" y="385" width="110" height="20" as="geometry"/>
                </mxCell>
                <mxCell id="27" value="Data7" style="rounded=0;whiteSpace=wrap;html=1;fillColor=#fff2cc;strokeColor=#d6b656;" vertex="1" parent="1">
                    <mxGeometry x="516" y="415" width="110" height="20" as="geometry"/>
                </mxCell>
                <mxCell id="28" value="Data8" style="rounded=0;whiteSpace=wrap;html=1;fillColor=#fff2cc;strokeColor=#d6b656;" vertex="1" parent="1">
                    <mxGeometry x="516" y="445" width="110" height="20" as="geometry"/>
                </mxCell>
                <mxCell id="29" value="Master1" style="rounded=0;whiteSpace=wrap;html=1;fillColor=#d5e8d4;strokeColor=#82b366;" vertex="1" parent="1">
                    <mxGeometry x="666" y="245" width="110" height="45" as="geometry"/>
                </mxCell>
                <mxCell id="30" value="Master2" style="rounded=0;whiteSpace=wrap;html=1;fillColor=#d5e8d4;strokeColor=#82b366;" vertex="1" parent="1">
                    <mxGeometry x="666" y="325" width="110" height="45" as="geometry"/>
                </mxCell>
                <mxCell id="31" value="Master3" style="rounded=0;whiteSpace=wrap;html=1;fillColor=#d5e8d4;strokeColor=#82b366;" vertex="1" parent="1">
                    <mxGeometry x="666" y="400" width="110" height="45" as="geometry"/>
                </mxCell>
                <mxCell id="32" value="" style="shape=mxgraph.bpmn.shape;html=1;verticalLabelPosition=bottom;labelBackgroundColor=#ffffff;verticalAlign=top;align=center;perimeter=ellipsePerimeter;outlineConnect=0;outline=standard;symbol=star;" vertex="1" parent="1">
                    <mxGeometry x="677" y="260" width="15" height="15" as="geometry"/>
                </mxCell>
                <mxCell id="44" value="&lt;span style=&quot;white-space: normal&quot;&gt;将Kibana部署在Coordinating节点&lt;/span&gt;" style="shape=callout;whiteSpace=wrap;html=1;perimeter=calloutPerimeter;fillColor=#f5f5f5;strokeColor=#666666;fontColor=#333333;" vertex="1" parent="1">
                    <mxGeometry x="346" y="130" width="150" height="80" as="geometry"/>
                </mxCell>
                <mxCell id="47" value="" style="edgeStyle=orthogonalEdgeStyle;orthogonalLoop=1;jettySize=auto;html=1;rounded=0;" edge="1" parent="1" source="46" target="3">
                    <mxGeometry relative="1" as="geometry">
                        <Array as="points">
                            <mxPoint x="196" y="303"/>
                            <mxPoint x="196" y="303"/>
                        </Array>
                    </mxGeometry>
                </mxCell>
                <mxCell id="46" value="Application" style="rounded=0;whiteSpace=wrap;html=1;fillColor=#f5f5f5;strokeColor=#666666;fontColor=#333333;" vertex="1" parent="1">
                    <mxGeometry x="26" y="280" width="120" height="45" as="geometry"/>
                </mxCell>
                <mxCell id="49" value="" style="edgeStyle=orthogonalEdgeStyle;rounded=0;orthogonalLoop=1;jettySize=auto;html=1;" edge="1" parent="1" source="48" target="3">
                    <mxGeometry relative="1" as="geometry">
                        <Array as="points">
                            <mxPoint x="196" y="398"/>
                            <mxPoint x="196" y="398"/>
                        </Array>
                    </mxGeometry>
                </mxCell>
                <mxCell id="48" value="访问 Kibana" style="rounded=0;whiteSpace=wrap;html=1;fillColor=#f5f5f5;strokeColor=#666666;fontColor=#333333;" vertex="1" parent="1">
                    <mxGeometry x="26" y="375" width="120" height="45" as="geometry"/>
                </mxCell>
            </root>
        </mxGraphModel>
    </diagram>
</mxfile>